<svg width="11" height="14" viewBox="0 0 11 14" fill="none" xmlns="http://www.w3.org/2000/svg">
<path d="M5.6117 14C4.31542 14 3.20788 13.6354 2.28908 12.9063C1.37029 12.1771 0.910889 11.2817 0.910889 10.22V2.695C0.910889 1.94833 1.23496 1.3125 1.8831 0.7875C2.53125 0.2625 3.31115 0 4.22283 0C5.14875 0 5.93221 0.2625 6.57323 0.7875C7.21425 1.3125 7.53477 1.95417 7.53477 2.7125V9.6075C7.53477 10.0508 7.34958 10.4271 6.97921 10.7363C6.60885 11.0454 6.15301 11.2 5.6117 11.2C5.0704 11.2 4.61456 11.0338 4.24419 10.7013C3.87383 10.3688 3.68864 9.975 3.68864 9.52V2.66H4.54334V9.5725C4.54334 9.82917 4.64661 10.0479 4.85316 10.2288C5.05971 10.4096 5.31256 10.5 5.6117 10.5C5.91085 10.5 6.16369 10.4125 6.37024 10.2375C6.5768 10.0625 6.68007 9.8525 6.68007 9.6075V2.695C6.68007 2.135 6.44147 1.6625 5.96427 1.2775C5.48706 0.8925 4.90658 0.7 4.22283 0.7C3.53907 0.7 2.95859 0.8925 2.48139 1.2775C2.00418 1.6625 1.76558 2.135 1.76558 2.695V10.255C1.76558 11.1067 2.14307 11.8271 2.89805 12.4163C3.65303 13.0054 4.55758 13.3 5.6117 13.3C6.68007 13.3 7.58818 13.0025 8.33604 12.4075C9.0839 11.8125 9.45783 11.0833 9.45783 10.22V2.66H10.3125V10.2025C10.3125 11.2642 9.85312 12.1625 8.93433 12.8975C8.01553 13.6325 6.90799 14 5.6117 14Z" fill="white"/>
</svg>
