<svg width="13" height="16" viewBox="0 0 13 16" fill="none" xmlns="http://www.w3.org/2000/svg">
<path d="M6.49504 9.62105C5.88683 9.62105 5.37764 9.40409 4.96746 8.97017C4.55727 8.53626 4.35218 8.00936 4.35218 7.38947V2.10526C4.35218 1.52046 4.56039 1.02339 4.97681 0.614042C5.39323 0.204681 5.89889 0 6.49379 0C7.08868 0 7.59475 0.204681 8.01201 0.614042C8.42927 1.02339 8.63789 1.52046 8.63789 2.10526V7.38947C8.63789 8.00936 8.4328 8.53626 8.02262 8.97017C7.61243 9.40409 7.10324 9.62105 6.49504 9.62105ZM5.85854 16V13.1368C4.35925 12.9825 3.10041 12.3579 2.08202 11.2632C1.06364 10.1684 0.554443 8.87719 0.554443 7.38947H1.82743C1.82743 8.66667 2.28208 9.74035 3.19139 10.6105C4.10069 11.4807 5.20041 11.9158 6.49054 11.9158C7.78067 11.9158 8.88188 11.4807 9.79419 10.6105C10.7065 9.74035 11.1626 8.66667 11.1626 7.38947H12.4356C12.4356 8.87719 11.9264 10.1684 10.908 11.2632C9.88966 12.3579 8.63082 12.9825 7.13153 13.1368V16H5.85854ZM6.49504 8.3579C6.74963 8.3579 6.95826 8.26316 7.12092 8.07368C7.28358 7.88421 7.36491 7.65614 7.36491 7.38947V2.10526C7.36491 1.86667 7.28154 1.66667 7.11481 1.50526C6.94809 1.34386 6.7415 1.26316 6.49504 1.26316C6.24857 1.26316 6.04198 1.34386 5.87526 1.50526C5.70853 1.66667 5.62516 1.86667 5.62516 2.10526V7.38947C5.62516 7.65614 5.70649 7.88421 5.86915 8.07368C6.03181 8.26316 6.24044 8.3579 6.49504 8.3579Z" fill="white"/>
</svg>
