<svg width="15" height="14" viewBox="0 0 15 14" fill="none" xmlns="http://www.w3.org/2000/svg">
<path d="M3.68317 8.4175H9.10643V7.3675H3.68317V8.4175ZM3.68317 6.1425H12V5.0925H3.68317V6.1425ZM3.68317 3.8675H12V2.8175H3.68317V3.8675ZM0.910889 14V1.05C0.910889 0.781667 1.01485 0.539583 1.22277 0.32375C1.43069 0.107917 1.67326 0 1.95049 0H13.7327C13.9983 0 14.238 0.107917 14.4517 0.32375C14.6654 0.539583 14.7723 0.781667 14.7723 1.05V10.15C14.7723 10.4183 14.6654 10.6604 14.4517 10.8763C14.238 11.0921 13.9983 11.2 13.7327 11.2H3.68317L0.910889 14Z" fill="white"/>
</svg>
