<svg width="15" height="15" viewBox="0 0 15 15" fill="none" xmlns="http://www.w3.org/2000/svg">
<path d="M3 9.01875H8.86875V7.89375H3V9.01875ZM3 6.58125H12V5.45625H3V6.58125ZM3 4.14375H12V3.01875H3V4.14375ZM0 15V1.125C0 0.8375 0.1125 0.578125 0.3375 0.346875C0.5625 0.115625 0.825 0 1.125 0H13.875C14.1625 0 14.4219 0.115625 14.6531 0.346875C14.8844 0.578125 15 0.8375 15 1.125V10.875C15 11.1625 14.8844 11.4219 14.6531 11.6531C14.4219 11.8844 14.1625 12 13.875 12H3L0 15ZM1.125 12.2813L2.53125 10.875H13.875V1.125H1.125V12.2813Z" fill="white"/>
</svg>
