<svg width="17" height="16" viewBox="0 0 17 16" fill="none" xmlns="http://www.w3.org/2000/svg">
<path d="M8.5 15.75C6.3125 15.75 4.45312 14.9844 2.92188 13.4531C1.39062 11.9219 0.625 10.0625 0.625 7.875C0.625 5.6875 1.39062 3.82812 2.92188 2.29688C4.45312 0.765625 6.3125 0 8.5 0C8.61667 0 8.74062 0.00364583 8.87187 0.0109375C9.00312 0.0182292 9.17083 0.0291667 9.375 0.04375C8.85 0.510417 8.44167 1.08646 8.15 1.77188C7.85833 2.45729 7.7125 3.17917 7.7125 3.9375C7.7125 5.25 8.17187 6.36562 9.09062 7.28437C10.0094 8.20312 11.125 8.6625 12.4375 8.6625C13.1958 8.6625 13.9177 8.5276 14.6031 8.25781C15.2885 7.98802 15.8646 7.6125 16.3313 7.13125C16.3458 7.30625 16.3568 7.44844 16.3641 7.55781C16.3714 7.66719 16.375 7.77292 16.375 7.875C16.375 10.0625 15.6094 11.9219 14.0781 13.4531C12.5469 14.9844 10.6875 15.75 8.5 15.75Z" fill="white"/>
</svg>
