<svg width="14" height="14" viewBox="0 0 14 14" fill="none" xmlns="http://www.w3.org/2000/svg">
<path d="M1.15512 14C0.847085 14 0.577558 13.8833 0.346535 13.65C0.115512 13.4167 0 13.1444 0 12.8333V1.16667C0 0.855556 0.115512 0.583333 0.346535 0.35C0.577558 0.116667 0.847085 0 1.15512 0H12.7063C13.0143 0 13.2838 0.116667 13.5149 0.35C13.7459 0.583333 13.8614 0.855556 13.8614 1.16667V12.8333C13.8614 13.1444 13.7459 13.4167 13.5149 13.65C13.2838 13.8833 13.0143 14 12.7063 14H1.15512ZM1.15512 12.8333H12.7063V1.16667H1.15512V12.8333ZM2.23322 10.9472H11.6474L8.81738 7.13611L6.27613 10.4611L4.4857 7.99167L2.23322 10.9472Z" fill="white"/>
</svg>
