<svg width="21" height="21" viewBox="0 0 21 21" fill="none" xmlns="http://www.w3.org/2000/svg">
<path d="M10.5875 15.5969C10.8208 15.5969 11.0177 15.5167 11.1781 15.3562C11.3385 15.1958 11.4187 14.999 11.4187 14.7656C11.4187 14.5323 11.3385 14.3354 11.1781 14.175C11.0177 14.0146 10.8208 13.9344 10.5875 13.9344C10.3542 13.9344 10.1573 14.0146 9.99687 14.175C9.83646 14.3354 9.75625 14.5323 9.75625 14.7656C9.75625 14.999 9.83646 15.1958 9.99687 15.3562C10.1573 15.5167 10.3542 15.5969 10.5875 15.5969ZM9.82187 12.4031H11.1125C11.1125 12.024 11.1599 11.6776 11.2547 11.3641C11.3495 11.0505 11.6448 10.6896 12.1406 10.2812C12.5927 9.90208 12.9135 9.53021 13.1031 9.16563C13.2927 8.80104 13.3875 8.4 13.3875 7.9625C13.3875 7.18958 13.1359 6.56979 12.6328 6.10313C12.1297 5.63646 11.4625 5.40313 10.6312 5.40313C9.91667 5.40313 9.28594 5.58177 8.73906 5.93906C8.19219 6.29635 7.79479 6.78854 7.54688 7.41563L8.70625 7.85313C8.86667 7.44479 9.10729 7.1276 9.42812 6.90156C9.74896 6.67552 10.1281 6.5625 10.5656 6.5625C11.0615 6.5625 11.4625 6.6974 11.7688 6.96719C12.075 7.23698 12.2281 7.58333 12.2281 8.00625C12.2281 8.32708 12.1333 8.62969 11.9437 8.91406C11.7542 9.19844 11.4771 9.49375 11.1125 9.8C10.675 10.1792 10.3505 10.5547 10.1391 10.9266C9.9276 11.2984 9.82187 11.7906 9.82187 12.4031ZM10.5 19.25C9.30417 19.25 8.17396 19.0203 7.10938 18.5609C6.04479 18.1016 5.1151 17.4745 4.32031 16.6797C3.52552 15.8849 2.89844 14.9552 2.43906 13.8906C1.97969 12.826 1.75 11.6958 1.75 10.5C1.75 9.28958 1.97969 8.15208 2.43906 7.0875C2.89844 6.02292 3.52552 5.09687 4.32031 4.30938C5.1151 3.52188 6.04479 2.89844 7.10938 2.43906C8.17396 1.97969 9.30417 1.75 10.5 1.75C11.7104 1.75 12.8479 1.97969 13.9125 2.43906C14.9771 2.89844 15.9031 3.52188 16.6906 4.30938C17.4781 5.09687 18.1016 6.02292 18.5609 7.0875C19.0203 8.15208 19.25 9.28958 19.25 10.5C19.25 11.6958 19.0203 12.826 18.5609 13.8906C18.1016 14.9552 17.4781 15.8849 16.6906 16.6797C15.9031 17.4745 14.9771 18.1016 13.9125 18.5609C12.8479 19.0203 11.7104 19.25 10.5 19.25Z" fill="white"/>
</svg>
