<svg width="15" height="15" viewBox="0 0 15 15" fill="none" xmlns="http://www.w3.org/2000/svg">
<path d="M11.4021 15H3.45465V5.4L8.43079 0L9.12888 0.58125C9.20048 0.64375 9.25418 0.73125 9.28998 0.84375C9.32578 0.95625 9.34368 1.09375 9.34368 1.25625V1.44375L8.53819 5.4H13.8902C14.1766 5.4 14.4272 5.5125 14.642 5.7375C14.8568 5.9625 14.9642 6.225 14.9642 6.525V8.05948C14.9642 8.14899 14.9732 8.24063 14.991 8.33438C15.0089 8.42813 15 8.51875 14.9642 8.60625L12.7088 14.0438C12.6029 14.3094 12.4263 14.5352 12.1791 14.7211C11.9319 14.907 11.6729 15 11.4021 15ZM4.52864 13.875H11.6348L13.8902 8.26875V6.525H7.2136L8.16229 1.85625L4.52864 5.86875V13.875ZM3.45465 5.4V6.525H1.07399V13.875H3.45465V15H0V5.4H3.45465Z" fill="white"/>
</svg>
