<svg width="15" height="19" viewBox="0 0 15 19" fill="none" xmlns="http://www.w3.org/2000/svg">
<path d="M0 15.9375V14.5312H1.96875V7.35938C1.96875 6.04688 2.35547 4.87891 3.12891 3.85547C3.90234 2.83203 4.92188 2.1875 6.1875 1.92188V1.24219C6.1875 0.882812 6.31641 0.585938 6.57422 0.351562C6.83203 0.117188 7.14062 0 7.5 0C7.85938 0 8.16797 0.117188 8.42578 0.351562C8.68359 0.585938 8.8125 0.882812 8.8125 1.24219V1.92188C10.0781 2.1875 11.1016 2.83203 11.8828 3.85547C12.6641 4.87891 13.0547 6.04688 13.0547 7.35938V14.5312H15V15.9375H0ZM7.5 18.75C7 18.75 6.5625 18.5664 6.1875 18.1992C5.8125 17.832 5.625 17.3906 5.625 16.875H9.375C9.375 17.3906 9.19141 17.832 8.82422 18.1992C8.45703 18.5664 8.01562 18.75 7.5 18.75Z" fill="white"/>
</svg>
