<svg width="14" height="14" viewBox="0 0 14 14" fill="none" xmlns="http://www.w3.org/2000/svg">
<path d="M9.44992 6.09583V5.22083H12.8333V6.09583H9.44992ZM5.24992 6.98541C4.60825 6.98541 4.08325 6.78125 3.67492 6.37291C3.26659 5.96458 3.06242 5.43958 3.06242 4.79791C3.06242 4.15625 3.26659 3.63125 3.67492 3.22291C4.08325 2.81458 4.60825 2.61041 5.24992 2.61041C5.89159 2.61041 6.41659 2.81458 6.82492 3.22291C7.23325 3.63125 7.43742 4.15625 7.43742 4.79791C7.43742 5.43958 7.23325 5.96458 6.82492 6.37291C6.41659 6.78125 5.89159 6.98541 5.24992 6.98541ZM0.583252 11.6667V10.2958C0.583252 9.95555 0.668321 9.64687 0.83846 9.36979C1.0086 9.0927 1.25409 8.88611 1.57492 8.75C2.30409 8.42916 2.95304 8.20312 3.52179 8.07187C4.09054 7.94062 4.66659 7.875 5.24992 7.875C5.83325 7.875 6.40686 7.94062 6.97075 8.07187C7.53464 8.20312 8.18117 8.42916 8.91034 8.75C9.23117 8.89583 9.47908 9.10486 9.65409 9.37708C9.82909 9.6493 9.91658 9.95555 9.91658 10.2958V11.6667H0.583252Z" fill="#7CA9B3"/>
</svg>
