<svg width="14" height="10" viewBox="0 0 14 10" fill="none" xmlns="http://www.w3.org/2000/svg">
<path d="M10.6459 6.16666V4.27083H8.75004V3.39583H10.6459V1.5H11.5209V3.39583H13.4167V4.27083H11.5209V6.16666H10.6459ZM5.25004 4.98541C4.60837 4.98541 4.08337 4.78125 3.67504 4.37291C3.26671 3.96458 3.06254 3.43958 3.06254 2.79791C3.06254 2.15625 3.26671 1.63125 3.67504 1.22291C4.08337 0.814579 4.60837 0.610413 5.25004 0.610413C5.89171 0.610413 6.41671 0.814579 6.82504 1.22291C7.23337 1.63125 7.43754 2.15625 7.43754 2.79791C7.43754 3.43958 7.23337 3.96458 6.82504 4.37291C6.41671 4.78125 5.89171 4.98541 5.25004 4.98541ZM0.583374 9.66666V8.29583C0.583374 7.95555 0.668443 7.64687 0.838582 7.36979C1.00872 7.0927 1.25421 6.88611 1.57504 6.75C2.30421 6.42916 2.95317 6.20312 3.52192 6.07187C4.09067 5.94062 4.66671 5.875 5.25004 5.875C5.83337 5.875 6.40699 5.94062 6.97087 6.07187C7.53476 6.20312 8.18129 6.42916 8.91046 6.75C9.23129 6.89583 9.47921 7.10486 9.65421 7.37708C9.82921 7.6493 9.91671 7.95555 9.91671 8.29583V9.66666H0.583374Z" fill="#7CA9B3"/>
</svg>
