<svg width="13" height="13" viewBox="0 0 13 13" fill="none" xmlns="http://www.w3.org/2000/svg">
<path d="M12.0958 12.8573L7.43854 8.20001C7.08437 8.50695 6.67142 8.74602 6.19968 8.9172C5.72795 9.08838 5.22597 9.17397 4.69375 9.17397C3.41684 9.17397 2.33615 8.73126 1.45169 7.84584C0.56723 6.96042 0.125 5.89202 0.125 4.64063C0.125 3.38924 0.567708 2.32084 1.45312 1.43542C2.33854 0.550008 3.4099 0.1073 4.66719 0.1073C5.92448 0.1073 6.99288 0.550008 7.8724 1.43542C8.75191 2.32084 9.19167 3.39013 9.19167 4.64329C9.19167 5.14916 9.10903 5.6382 8.94375 6.11042C8.77847 6.58265 8.53056 7.02536 8.2 7.43855L12.875 12.0781L12.0958 12.8573ZM4.67604 8.11147C5.63524 8.11147 6.45056 7.77206 7.12201 7.09324C7.79345 6.41442 8.12917 5.59688 8.12917 4.64063C8.12917 3.68438 7.79345 2.86685 7.12201 2.18803C6.45056 1.50921 5.63524 1.1698 4.67604 1.1698C3.70701 1.1698 2.88332 1.50921 2.20499 2.18803C1.52666 2.86685 1.1875 3.68438 1.1875 4.64063C1.1875 5.59688 1.52666 6.41442 2.20499 7.09324C2.88332 7.77206 3.70701 8.11147 4.67604 8.11147Z" fill="white"/>
</svg>
